<svg width="191" height="64" viewBox="0 0 191 64" fill="none" xmlns="http://www.w3.org/2000/svg">
<path fill-rule="evenodd" clip-rule="evenodd" d="M24.8942 3.80638C13.1978 3.80638 3.71596 13.5189 3.71596 25.5C3.71596 35.5201 10.3487 43.9561 19.3632 46.4467L20.413 46.6895L20.1872 50.6184L18.3947 50.1236C7.79991 47.1936 0 37.2822 0 25.5C0 11.4168 11.1456 0 24.8942 0C38.6428 0 49.7885 11.4168 49.7885 25.5C49.7885 39.5832 38.6428 51 24.8942 51H23.0363V15.3782H26.7522V47.1127C37.5795 46.1484 46.0725 36.8405 46.0725 25.5023C46.0725 13.5189 36.5907 3.80638 24.8942 3.80638Z" fill="white"/>
<path d="M86.1537 5.36039C85.1924 3.65934 83.8693 2.32062 82.2141 1.39403C80.5696 0.467444 78.72 0 76.7137 0C74.7074 0 72.8524 0.467444 71.1971 1.39403C69.5311 2.32062 68.2026 3.6621 67.2413 5.36039C66.2746 7.0725 65.7886 9.07228 65.7886 11.3016C65.7886 13.5365 66.2773 15.5363 67.2413 17.2484C68.208 18.955 69.5365 20.2882 71.1971 21.2092C72.8578 22.1358 74.7128 22.6088 76.7137 22.6088C78.7146 22.6088 80.5642 22.1358 82.2141 21.2092C83.8639 20.2882 85.187 18.9522 86.1537 17.2484C87.1204 15.5363 87.6064 13.5365 87.6064 11.3016C87.6091 9.07228 87.1204 7.0725 86.1537 5.36039ZM82.8027 15.3178C82.1898 16.4961 81.3392 17.4226 80.2753 18.0782C79.2114 18.7392 78.0179 19.0739 76.7164 19.0739C75.4149 19.0739 74.2214 18.7392 73.1575 18.0782C72.0936 17.4226 71.2376 16.4933 70.6139 15.3178C69.9901 14.1561 69.6742 12.8063 69.6742 11.3016C69.6742 9.80248 69.9901 8.44994 70.6139 7.28548C71.2376 6.11272 72.0936 5.18613 73.1575 4.52507C74.2268 3.86402 75.4257 3.52934 76.7164 3.52934C78.0071 3.52934 79.206 3.86402 80.2753 4.52507C81.3446 5.18613 82.1898 6.12655 82.8027 7.30761C83.4157 8.4859 83.7262 9.83014 83.7262 11.3016C83.7235 12.8008 83.4157 14.1533 82.8027 15.3178Z" fill="white"/>
<path d="M106.079 11.368V22.2713H102.331V12.9418C102.331 11.4482 101.993 10.3197 101.332 9.5978C100.67 8.87589 99.7737 8.50802 98.6747 8.50802C97.5244 8.50802 96.5875 8.90355 95.8908 9.68631C95.1914 10.4691 94.8485 11.6474 94.8485 13.282V22.2713H91.1006V5.7891H94.3652L94.6541 9.20227L95.0834 8.44717C95.7072 7.36292 96.4498 6.5857 97.3084 6.13485C98.1752 5.67847 99.1635 5.45166 100.249 5.45166C101.958 5.45166 103.379 5.96889 104.459 6.99505C105.531 8.01292 106.079 9.4844 106.079 11.368Z" fill="white"/>
<path d="M103.26 39.9654C103.26 38.4828 102.906 37.1247 102.207 35.9382C101.518 34.7488 100.551 33.8056 99.347 33.1252C98.1427 32.4475 96.7872 32.1018 95.3156 32.1018C93.8035 32.1018 92.4129 32.4586 91.1923 33.1584C89.9664 33.8582 88.9836 34.8594 88.2734 36.1373C87.5632 37.4152 87.2041 38.9198 87.2041 40.6098C87.2041 42.3054 87.574 43.8321 88.3004 45.1377C89.016 46.4543 90.015 47.4832 91.2572 48.1885C92.5155 48.8993 93.925 49.2617 95.4506 49.2617C98.4884 49.2617 100.897 48.1111 102.612 45.843L100.181 44.0092C99.7251 44.6758 99.1121 45.1985 98.348 45.5664C97.5136 45.9675 96.6117 46.1721 95.6855 46.1721C94.7296 46.1721 93.8683 45.9619 93.1095 45.5443C92.3561 45.1211 91.7594 44.5707 91.3193 43.9041C90.8845 43.2264 90.6415 42.5045 90.5875 41.7549L90.5659 41.4617H103.162C103.227 40.9279 103.26 40.4273 103.26 39.9654ZM90.7873 38.9835L90.8251 38.6654C90.9655 37.642 91.4543 36.7818 92.2832 36.1041C93.1014 35.432 94.1491 35.0863 95.3858 35.0863C96.5631 35.0863 97.5568 35.4375 98.3426 36.1262C99.1337 36.8205 99.5901 37.6779 99.7089 38.6709L99.7413 38.9835H90.7873Z" fill="white"/>
<path d="M83.4535 32.1821C82.5192 30.5474 81.1853 29.2585 79.4707 28.354C77.7506 27.4551 75.7173 26.9932 73.4275 26.9932H65.7886V48.9243H73.4275C75.7227 48.9243 77.756 48.4624 79.4707 47.5579C81.1853 46.659 82.5192 45.3673 83.4535 43.7299C84.3878 42.0841 84.8576 40.1452 84.8576 37.9573C84.8576 35.7723 84.3878 33.825 83.4535 32.1821ZM80.0539 41.8601C79.4356 42.9775 78.558 43.8543 77.4293 44.4656C76.3168 45.0769 75.0045 45.3867 73.5355 45.3867H69.5419V30.5225H73.5355C74.9775 30.5225 76.2871 30.8268 77.4131 31.438C78.5472 32.0438 79.4356 32.9261 80.0539 34.0546C80.6669 35.161 80.9774 36.472 80.9774 37.949C80.9747 39.4371 80.6669 40.7509 80.0539 41.8601Z" fill="white"/>
<path d="M132.959 38.0208V48.9242H129.212V39.3181C129.212 37.9351 128.89 36.884 128.25 36.1953C127.605 35.5121 126.744 35.1609 125.69 35.1609C124.54 35.1609 123.609 35.573 122.907 36.3779C122.213 37.1772 121.864 38.3389 121.864 39.8298V48.9269H118.116V39.3208C118.116 37.9434 117.795 36.8923 117.166 36.2036C116.537 35.5149 115.675 35.1636 114.595 35.1636C113.483 35.1636 112.567 35.5757 111.86 36.3806C111.16 37.1745 110.801 38.3693 110.801 39.9376V48.9269H107.056V32.4447H110.321L110.602 35.833L111.036 35.1055C111.676 34.0158 112.403 33.233 113.18 32.7821C113.971 32.3313 114.944 32.1045 116.067 32.1045C117.314 32.1045 118.427 32.3811 119.369 32.9315C120.303 33.4764 120.992 34.2979 121.413 35.3711L121.646 35.9657L121.905 35.3821C122.399 34.3034 123.109 33.4764 124.008 32.9315C124.926 32.3811 125.993 32.1045 127.192 32.1045C128.879 32.1045 130.278 32.6162 131.347 33.6313C132.417 34.6381 132.959 36.1151 132.959 38.0208Z" fill="white"/>
<path d="M149.223 33.5871C148.529 33.0975 147.743 32.7269 146.874 32.4752C146.007 32.2318 145.056 32.1018 144.025 32.1018C142.713 32.1018 141.433 32.4144 140.223 33.0229C139.094 33.5954 138.125 34.4446 137.326 35.5399L139.767 37.3847C140.212 36.7182 140.798 36.1788 141.498 35.7833C142.283 35.338 143.126 35.1167 143.993 35.1167C145.013 35.1167 145.858 35.3877 146.504 35.9271C147.176 36.4775 147.514 37.1828 147.514 38.0154V38.9309L143.636 39.0747C141.527 39.1466 139.764 39.6362 138.39 40.5296C137.045 41.412 136.389 42.7092 136.389 44.4849C136.389 45.547 136.664 46.4072 137.234 47.1181C137.798 47.8345 138.541 48.3793 139.432 48.7251C140.336 49.0764 141.276 49.2534 142.216 49.2534C144.387 49.2534 146.109 48.537 147.346 47.1319L147.695 46.7364L148.199 48.9159H151.264V38.3667C151.262 36.1539 150.573 34.5497 149.223 33.5871ZM147.481 42.7285C147.481 43.8073 147.063 44.7283 146.234 45.4724C145.421 46.2053 144.325 46.5787 142.991 46.5787C142.194 46.5787 141.5 46.374 140.925 45.9675C140.312 45.5443 140.002 44.933 140.002 44.1558C140.002 43.3564 140.372 42.7009 141.092 42.2002C141.792 41.7328 142.834 41.4839 144.19 41.4617L147.481 41.3124V42.7285Z" fill="white"/>
<path d="M170.406 38.0209V48.9242H166.658V39.5947C166.658 38.1011 166.321 36.9726 165.659 36.2507C164.998 35.5288 164.101 35.1609 163.002 35.1609C161.852 35.1609 160.915 35.5565 160.218 36.3392C159.519 37.122 159.176 38.3003 159.176 39.9349V48.9242H155.428V32.442H158.693L158.979 35.8524L159.408 35.0973C160.032 34.0131 160.775 33.2358 161.633 32.785C162.5 32.3286 163.488 32.1018 164.574 32.1018C166.283 32.1018 167.703 32.619 168.784 33.6452C169.858 34.6658 170.406 36.1373 170.406 38.0209Z" fill="white"/>
<path d="M186.3 24.6089V34.7101L185.827 34.1929C185.317 33.6314 184.65 33.1363 183.843 32.7214C183.035 32.3037 182.188 32.1046 181.272 32.1046C179.765 32.1046 178.396 32.489 177.203 33.2386C176.009 33.9882 175.075 35.0392 174.424 36.3503C173.763 37.6669 173.425 39.1328 173.425 40.7177C173.425 42.25 173.752 43.6966 174.403 45.0022C175.048 46.3021 175.955 47.3532 177.087 48.1138C178.226 48.8745 179.533 49.2645 180.964 49.2645C183.019 49.2645 184.755 48.4928 186.13 46.9687L186.484 46.5732L186.983 48.9242H190.048V24.6089H186.3ZM185.946 43.6054C185.49 44.4434 184.877 45.0879 184.129 45.5221C183.392 45.9509 182.582 46.1721 181.737 46.1721C180.859 46.1721 180.027 45.9343 179.269 45.4668C178.515 45.0104 177.891 44.3494 177.424 43.5113C176.973 42.6732 176.741 41.7217 176.741 40.6818C176.741 39.592 176.973 38.6211 177.424 37.7969C177.886 36.9809 178.504 36.3365 179.252 35.8911C180.011 35.4458 180.848 35.2246 181.737 35.2246C182.603 35.2246 183.424 35.4348 184.161 35.8524C184.909 36.2811 185.517 36.9145 185.962 37.736C186.408 38.552 186.635 39.5422 186.635 40.6818C186.638 41.7937 186.403 42.7783 185.946 43.6054Z" fill="white"/>
<path d="M66.6246 61.2644V54.5669H69.3036C70.0129 54.5669 70.5607 54.7189 70.9471 55.0229C71.3334 55.3269 71.5266 55.7576 71.5266 56.3149C71.5266 56.7329 71.3999 57.0812 71.1466 57.3599C70.8996 57.6386 70.5544 57.8222 70.1111 57.9109V57.7779C70.6051 57.8349 70.9914 58.0059 71.2701 58.2909C71.5551 58.5696 71.6976 58.9464 71.6976 59.4214C71.6976 60.0167 71.4981 60.4727 71.0991 60.7894C70.7064 61.1061 70.1491 61.2644 69.4271 61.2644H66.6246ZM67.3941 60.6279H69.3511C69.8324 60.6279 70.2124 60.5361 70.4911 60.3524C70.7761 60.1624 70.9186 59.8489 70.9186 59.4119C70.9186 58.9686 70.7761 58.6551 70.4911 58.4714C70.2124 58.2814 69.8324 58.1864 69.3511 58.1864H67.3941V60.6279ZM67.3941 57.5594H69.1896C69.7089 57.5594 70.0984 57.4581 70.3581 57.2554C70.6177 57.0527 70.7476 56.7614 70.7476 56.3814C70.7476 55.9887 70.6177 55.6942 70.3581 55.4979C70.0984 55.2952 69.7089 55.1939 69.1896 55.1939H67.3941V57.5594ZM74.6047 61.2644V58.1389L74.7757 58.6709L72.0017 54.5669H72.9137L75.1177 57.9014H74.9182L77.1127 54.5669H77.9867L75.2222 58.6709L75.3932 58.1389V61.2644H74.6047ZM80.5343 61.2644L83.4888 54.5669H84.1728L87.1748 61.2644H86.3578L85.5218 59.3549L85.8733 59.5544H81.7788L82.1588 59.3549L81.3418 61.2644H80.5343ZM83.8213 55.4694L82.2823 59.0794L82.0543 58.9084H85.5883L85.4173 59.0794L83.8403 55.4694H83.8213ZM88.1851 61.2644V54.5669H88.9736V61.2644H88.1851ZM90.6436 61.2644V54.5669H93.3796C94.0826 54.5669 94.6273 54.7347 95.0136 55.0704C95.4 55.3997 95.5931 55.8621 95.5931 56.4574C95.5931 56.8501 95.5045 57.1857 95.3271 57.4644C95.1561 57.7367 94.9123 57.9457 94.5956 58.0914C94.2853 58.2371 93.9211 58.3099 93.5031 58.3099L93.6741 58.1864H93.8641C94.1238 58.1864 94.355 58.2497 94.5576 58.3764C94.7666 58.5031 94.9313 58.7152 95.0516 59.0129L96.0016 61.2644H95.1371L94.2251 59.0509C94.1175 58.7659 93.956 58.5822 93.7406 58.4999C93.5253 58.4112 93.2561 58.3669 92.9331 58.3669H91.4321V61.2644H90.6436ZM91.4321 57.7494H93.2656C93.7723 57.7494 94.1555 57.6417 94.4151 57.4264C94.6811 57.2047 94.8141 56.8881 94.8141 56.4764C94.8141 56.0647 94.6811 55.7512 94.4151 55.5359C94.1555 55.3206 93.7723 55.2129 93.2656 55.2129H91.4321V57.7494ZM97.2213 61.2644V54.5669H101.496V55.2129H97.9908V57.5404H101.287V58.1959H97.9908V60.6089H101.496V61.2644H97.2213ZM104.85 61.2644L101.934 54.5669H102.779L105.373 60.6374H105.078L107.691 54.5669H108.508L105.572 61.2644H104.85Z" fill="white"/>
</svg>
