<svg width="27" height="27" viewBox="0 0 27 27" fill="none" xmlns="http://www.w3.org/2000/svg">
<g id="icon-BYOI Management">
<path id="Vector" d="M22.5 14.625C22.5 20.25 18.5625 23.0625 13.8825 24.6938C13.6374 24.7768 13.3712 24.7728 13.1288 24.6825C8.4375 23.0625 4.5 20.25 4.5 14.625V6.75002C4.5 6.45165 4.61853 6.1655 4.82951 5.95452C5.04048 5.74354 5.32663 5.62502 5.625 5.62502C7.875 5.62502 10.6875 4.27502 12.645 2.56502C12.8833 2.36139 13.1865 2.24951 13.5 2.24951C13.8135 2.24951 14.1167 2.36139 14.355 2.56502C16.3238 4.28627 19.125 5.62502 21.375 5.62502C21.6734 5.62502 21.9595 5.74354 22.1705 5.95452C22.3815 6.1655 22.5 6.45165 22.5 6.75002V14.625Z" stroke="white" stroke-linecap="round" stroke-linejoin="round"/>
<path id="Vector_2" d="M13.3257 13.125C14.6201 13.125 15.6694 12.0756 15.6694 10.7812C15.6694 9.48682 14.6201 8.4375 13.3257 8.4375C12.0313 8.4375 10.9819 9.48682 10.9819 10.7812C10.9819 12.0756 12.0313 13.125 13.3257 13.125Z" stroke="white" stroke-width="0.833326" stroke-linecap="round" stroke-linejoin="round"/>
<path id="Vector_3" d="M16.8749 16.875C16.8749 15.8804 16.4798 14.9266 15.7766 14.2233C15.0733 13.5201 14.1195 13.125 13.125 13.125C12.1304 13.125 11.1766 13.5201 10.4733 14.2233C9.77008 14.9266 9.375 15.8804 9.375 16.875" stroke="white" stroke-width="0.833326" stroke-linecap="round" stroke-linejoin="round"/>
</g>
</svg>
